<?xml version="1.0" encoding="UTF-8" standalone="no"?>
<svg
   xmlns:dc="http://purl.org/dc/elements/1.1/"
   xmlns:cc="http://creativecommons.org/ns#"
   xmlns:rdf="http://www.w3.org/1999/02/22-rdf-syntax-ns#"
   xmlns:svg="http://www.w3.org/2000/svg"
   xmlns="http://www.w3.org/2000/svg"
   xmlns:xlink="http://www.w3.org/1999/xlink"
   xmlns:sodipodi="http://sodipodi.sourceforge.net/DTD/sodipodi-0.dtd"
   xmlns:inkscape="http://www.inkscape.org/namespaces/inkscape"
   version="1.0"
   width="1078.2144"
   height="601.00024"
   id="svg2"
   inkscape:version="0.91 r13725"
   sodipodi:docname="Flag_of_Somaliland.svg">
  <metadata
     id="metadata98">
    <rdf:RDF>
      <cc:Work
         rdf:about="">
        <dc:format>image/svg+xml</dc:format>
        <dc:type
           rdf:resource="http://purl.org/dc/dcmitype/StillImage" />
        <dc:title></dc:title>
      </cc:Work>
    </rdf:RDF>
  </metadata>
  <defs
     id="defs96">
    <clipPath
       clipPathUnits="userSpaceOnUse"
       id="clipPath4245">
      <path
         inkscape:connector-curvature="0"
         style="fill:#000000;fill-opacity:1;stroke:none"
         d="m 26.706918,100.84419 c -0.416733,-0.0537 -0.783408,0.30575 -0.449383,1.30778 -0.152692,0.45807 -0.152733,0.7637 -0.152733,1.22177 -0.610759,2.59573 0.610975,0.76331 1.06905,-0.76361 0.6871,-0.94477 0.06883,-1.69682 -0.466934,-1.76594 z m -24.5406247,2.52428 c -0.080167,8.4e-4 -0.1549166,0.0125 -0.2246916,0.0333 -0.837425,0.25051 -0.839325,1.86041 0.1913333,2.433 0.6107667,0.76346 2.5958917,3.35104 0.7636083,3.19835 -0.9161416,-1.22152 -2.11901663,-1.53756 -3.34054997,-0.62141 -0.305375,0.15269 -0.79174163,0.13343 -1.09712503,0.28612 -10.9937083,17.86478 -21.9781333,36.81796 -32.9718413,54.68274 -0.916142,1.67959 -2.138275,3.22505 -3.054417,5.05734 -0.610758,2.44304 -1.822375,4.55216 -3.1966,6.53713 -1.5269,2.44305 -3.2163,4.87695 -5.201275,7.01462 -1.832277,1.98497 -2.900261,4.59081 -4.579852,6.72847 -1.5269,2.29036 -3.684875,4.28368 -5.059084,6.72673 -1.068833,1.22152 -1.508108,2.74044 -2.576941,3.96196 -2.290359,2.29036 -3.835967,5.19122 -5.820934,7.63427 -1.374216,1.67959 -2.594733,3.36899 -3.816258,5.20128 -2.290358,2.90111 -4.12385,6.09716 -6.108825,9.30366 -1.068833,1.37422 -1.641542,3.07221 -2.863075,4.29374 -0.458075,1.5269 -1.230567,3.05471 -1.383258,4.58161 0,1.98497 -0.44765,4.1221 -0.142192,6.10707 0.610767,1.83228 0.914692,3.65513 1.52545,5.48741 0.763458,1.37421 3.015917,1.23087 3.626683,2.91047 0.458067,1.22151 0.649559,2.45254 0.954942,3.67406 0.76345,3.66458 2.710675,6.71859 4.390275,9.92509 0.916142,1.5269 1.402658,3.32159 1.860725,5.15387 0.763458,4.27533 2.4333,8.24594 3.9602,12.21589 0.91615,3.35919 3.358342,5.95498 4.579875,9.16149 1.221517,1.98497 2.587742,3.98864 3.96195,5.82093 2.443042,3.20649 5.5055,5.78288 8.253927,8.68401 0.916142,1.06883 1.841634,2.32784 2.910475,3.24398 0.610759,1.37423 1.669684,2.12938 3.196592,2.43476 1.984975,0.61076 2.729933,2.87212 4.104142,4.24633 1.068833,1.06883 1.566008,2.60524 2.48215,3.67408 0.76345,1.98497 1.5256,3.83596 2.289058,5.82093 0.76345,2.44304 1.946925,4.57157 2.863067,7.01462 0.76345,1.67959 0.925341,3.49177 2.146858,4.86598 1.221533,1.37422 3.044217,2.16626 4.723808,2.62433 0.916142,0.1527 2.45415,0.74581 2.912225,-0.4757 0.305392,-1.98498 1.983825,-0.4685 3.052659,0.14218 3.664566,1.52691 7.176808,3.70252 10.688683,5.53481 1.0688333,0.45807 2.4629,0.87794 2.7682833,2.09946 0.30538337,2.44305 1.07788337,4.77166 1.38325837,7.06201 0.15269166,3.3592 0.91645003,6.70985 1.52720833,10.06904 -0.3053833,1.83228 1.50795,2.4333 1.8133333,3.9602 0.1526917,1.67959 1.964275,2.89152 1.8115834,4.7238 l 0.3352833,-0.33529 0,0.14394 -0.3352833,0.33354 c 0.1526916,1.5269 1.3746666,2.47179 2.2908083,3.38794 1.6795917,1.98497 3.082858,4.09394 4.91515,5.77353 1.374208,0.91615 2.261208,2.46305 3.482733,3.53189 1.679592,1.22152 3.693475,2.4527 4.151542,4.43767 0.152692,3.05381 1.688942,5.79163 2.910467,8.54007 0.916141,0.76346 2.127758,1.5186 3.1966,2.43474 1.068833,1.06884 2.443791,1.83099 3.818016,2.28906 1.374209,0.45807 1.985425,1.83289 2.290809,3.05441 0.458066,1.06884 1.802983,1.24982 2.719125,1.09713 1.679591,0.15269 3.693616,-0.0383 4.915141,1.33587 0.91615,1.6796 3.063459,1.70819 4.437675,2.62433 1.5269,1.6796 3.339234,3.48288 5.6296,4.24634 1.068834,1.06883 1.824142,2.61574 3.19835,3.53188 2.595742,1.22153 4.111434,3.80796 5.48565,6.251 1.6796,0.61077 3.532184,1.07805 5.0591,2.14688 1.5269,1.37421 2.919659,3.34067 5.057325,4.10413 1.6796,1.06883 2.4053,3.05282 4.390275,3.81627 3.664567,1.6796 5.66885,5.53526 8.875342,7.82561 1.984975,0.91615 3.530425,2.71944 5.057342,4.24634 3.206491,2.44304 6.2516,4.90508 9.305416,7.34813 1.832284,1.06883 2.289359,3.49353 3.816257,4.86775 1.83229,0.76345 3.95175,0.7919 5.63135,1.86074 1.37421,1.37422 2.74758,2.86322 4.57987,3.62667 0.91613,1.37421 2.29111,2.15577 3.81801,2.76653 3.35919,1.06883 6.73607,2.43346 9.6372,4.72381 4.5807,1.6796 9.43975,2.75807 14.17316,4.43767 3.51188,0.91614 6.88893,2.2717 10.4008,3.34053 6.56569,1.83229 12.99834,4.30469 19.56403,6.44235 2.44304,0.91615 4.99987,1.52561 7.44293,2.28906 7.98533,3.16401 16.29185,5.59888 24.43178,8.30309 l 0,0.38267 c 2.90112,1.06883 5.97247,1.98382 8.87359,3.05265 9.92487,3.66458 19.84162,6.86253 29.91919,10.06903 20.61321,6.87107 41.22632,13.75145 61.83953,20.46982 16.79594,5.19148 33.45786,10.71613 50.10112,16.36568 15.8798,5.49685 31.74092,10.65109 47.62073,15.84256 38.1726,12.52061 76.21156,25.6614 114.23147,38.79278 4.34392,1.35746 8.4745,2.70836 12.97773,3.9602 0.56209,0.15626 1.09505,0.32499 1.67115,0.47747 l 0.0473,-0.47747 0.14219,0 -0.0473,0.47747 12.21589,0 14.21881,0 14.02922,0 14.07488,0 0.28613,0 13.74309,0 14.21881,0 14.02922,0 14.02748,0 14.07662,0 2.91046,0 0.43009,0 27.62661,-26.86478 -14.02746,-2.91046 74.6751,-77.72774 19.70616,1.38326 54.77759,-55.11281 -2.0995,-46.47445 0.0948,0 -0.18958,-2.81568 -0.52492,-11.49968 -0.28608,0 -0.28792,-3.48272 -2.62433,-107.07468 -1.38325,-60.74065 -16.50967,-65.65755 0,-0.14393 c -2.29033,0.15269 -4.8575,0.11549 -6.53708,-1.7168 -3.35925,-1.5269 -6.88017,-3.1686 -10.54475,-3.62668 -2.29034,-0.76345 -5.02967,-0.61995 -7.01467,-2.14686 -2.74842,-1.98497 -6.45167,-1.85228 -9.35275,-3.53188 -1.03067,-0.57259 -2.06492,-0.76002 -3.14925,-0.7636 -1.80725,-0.007 -3.67308,0.52582 -5.39083,0.90754 -2.29042,0.30538 -4.42767,1.84133 -6.87067,1.38326 -2.44308,0 -4.86825,-0.29494 -7.15858,-0.14218 -2.13767,0.61075 -4.14134,1.67844 -5.82092,3.05265 -2.44308,1.83229 -5.64075,0.77411 -8.54183,0.62142 -1.83225,-0.45807 -3.53042,0.27578 -5.05734,1.19192 -2.44308,-0.30538 -5.34375,4.6e-4 -6.87066,2.29081 -1.83225,2.13767 -2.28967,5.649 -5.3435,6.10706 -3.20642,1.06884 -6.52896,0.63032 -9.73546,1.24108 -1.37422,0.76345 -0.93424,2.89122 -2.76652,3.1966 -2.13766,1.98497 -3.53072,5.33486 -6.58453,6.25101 -1.37422,0.76345 -3.04422,1.08838 -4.72381,1.24107 -2.13767,0.45808 -4.43813,-0.61076 -6.72848,0 -1.98497,0 -4.1221,-0.44917 -6.10707,0.61966 -2.29035,0.76346 -4.58208,0.14402 -6.87243,0.90755 -2.74843,0.61076 -5.46685,0.74406 -8.06259,-0.47747 -1.83228,-0.61076 -3.51294,-1.20227 -5.34522,-0.28613 -2.13767,0.30538 -4.15023,1.5078 -6.44059,1.04973 -2.59574,0.15269 -5.03854,-1.49906 -7.63427,-1.19368 -3.81727,0 -6.69933,2.88262 -10.21122,4.10415 -1.67959,0.45807 -3.52168,0.46674 -5.20127,-0.14395 -1.98498,-0.91614 -4.24664,-1.65919 -5.77354,-3.33878 -1.6796,-1.06884 -3.39714,-2.6156 -5.5348,-2.76829 -2.29036,-0.45806 -4.0957,-1.82237 -5.7753,-3.19659 -3.05381,-1.22153 -6.13582,-2.92972 -9.49501,-2.62434 -3.05381,0 -5.6302,1.7079 -8.68401,1.09713 -4.27533,-0.76345 -8.25468,1.6697 -12.07194,3.1966 -3.20649,1.67959 -6.07968,3.99025 -9.59155,5.05909 -2.90112,1.5269 -4.90524,4.10254 -8.11174,4.86599 -2.29035,0.91615 -4.8857,0.78316 -6.87067,2.00468 -1.67959,1.98498 -1.97538,4.99958 -4.72381,5.91573 -1.83228,0.76345 -3.97961,1.83304 -4.43767,3.81801 -1.06884,2.29035 -4.1132,2.30875 -5.48741,4.29373 -1.83229,1.83228 -4.42763,1.67116 -6.87067,1.67116 -1.5269,0.91614 -2.31926,3.06329 -4.15154,3.67406 -1.5269,1.06883 -3.94986,0.009 -4.866,2.14686 -1.22152,1.06884 -3.22664,3e-4 -4.29548,1.52719 -0.61075,1.8323 -2.44205,0.91645 -3.81626,1.52722 -1.83229,1.06883 -1.68035,3.82692 -3.81801,4.43768 -1.6796,0.30538 -3.47428,1.03938 -5.15388,1.95552 -2.59574,1.52691 -4.9051,3.52168 -7.34815,5.20128 -2.29035,1.83228 -5.01928,3.53028 -7.9204,4.29373 -2.44305,0.91614 -4.58031,2.57724 -6.87067,4.10414 -2.44305,2.29036 -5.80229,3.22459 -9.16148,2.76653 -1.5269,0 -3.39699,-0.64751 -4.7712,0.57401 -2.29035,1.52691 -5.4966,0.30409 -7.63426,2.28906 -3.05382,1.6796 -6.26052,3.83742 -9.92509,4.29548 -2.29035,0.30539 -4.72425,0.14196 -7.01461,-0.6214 -3.20649,-0.91615 -7.14851,0.60155 -9.59156,-2.14688 -1.67959,-1.98497 -4.15008,-3.19705 -5.67698,-5.48741 -2.13768,-1.83227 -2.91109,-5.16277 -5.96489,-5.77353 -1.52691,-0.45808 -3.1969,0.88799 -4.72381,-0.33353 -2.74842,-0.76345 -5.03853,1.6993 -7.63426,2.00468 -3.66458,1.06883 -7.63504,1.64984 -11.45229,0.42832 -1.83229,-0.15269 -3.51118,-1.03049 -5.34346,-1.33586 l 0,-0.19134 -0.28614,0 c -2.29035,-0.76346 -4.57141,-1.37277 -6.25101,-1.52546 -2.59574,0.15269 -3.54108,-2.58759 -5.67874,-3.19835 -3.51189,-0.15269 -6.4043,-2.28061 -9.30542,-3.9602 -1.37422,-1.06884 -3.64388,0.29693 -1.81159,1.67114 1.83229,1.37422 -0.64095,1.85008 -1.86249,1.23932 -2.13766,0 -0.90595,-2.12776 -1.6694,-3.1966 -1.67959,-1.06883 -3.05295,-2.60523 -4.57985,-3.67406 -1.22153,-1.52691 -3.05472,-0.75311 -4.58161,-0.9058 -2.13768,-0.45807 -4.27449,0.58146 -4.57987,2.71912 -0.15269,1.98499 -2.28061,2.92114 -3.9602,3.53189 -2.59574,0.61076 -4.58192,2.72833 -6.10882,4.86599 -1.6796,0.91615 -3.97975,0.75341 -5.20128,2.43301 -1.67959,1.83228 -4.12208,0.93569 -6.10707,1.24107 -1.98497,0 -2.75792,1.68019 -3.67407,3.0544 -1.52689,1.06884 -1.19238,4.1129 -3.48273,3.96021 -1.83229,-0.30538 -2.77718,1.25012 -3.38794,2.62433 -0.91614,1.83229 -3.19691,0.90594 -4.72381,1.6694 -1.37421,1.83229 -2.91092,3.65482 -5.20127,3.9602 -2.90112,0.30538 -5.92683,0.62141 -8.82794,0.62141 -2.44306,0.30538 -4.43638,-1.37452 -6.72674,-1.52721 -2.90111,-0.45806 -3.53232,3.52154 -5.82268,4.43768 -2.90112,0.76346 -4.58017,3.18655 -6.10707,5.62961 -1.67959,2.9011 -5.47736,1.97697 -7.9204,3.96195 -1.83229,2.13765 -3.81848,3.95875 -6.10883,5.48565 -3.2065,1.22152 -6.72733,1.06929 -9.78113,2.2908 -2.44305,0.61077 -4.10269,2.6054 -5.6296,4.43768 -1.37421,2.44305 -4.16089,3.83727 -7.06201,3.53188 -2.13767,0.45807 2.17471,0.76215 0.95318,2.28905 -0.91614,1.37422 -2.90026,2.10998 -4.57986,1.95729 -1.06883,0.45806 -2.45254,0.46696 -3.67407,0.61965 -2.29035,0.30539 -4.58032,0.63016 -6.87066,0.47747 -1.37422,0 -2.74044,-0.6004 -3.96197,-0.90578 -2.74842,-0.45808 -5.07542,-2.01358 -7.82385,-2.62434 -3.35918,-0.76345 -6.56589,-1.50795 -9.92508,-1.81334 -4.58071,0.45808 -8.99029,1.38357 -13.26562,2.91047 -3.51188,2.13767 -7.32965,3.65482 -11.4523,3.9602 -1.06883,0 -3.07205,0.27723 -3.53011,-0.33353 -4.58072,-0.91614 -8.97104,-1.06038 -13.55177,-1.67115 -1.22152,0.1527 -2.78607,-0.008 -4.00759,0.90755 -2.44304,1.98498 -5.80213,0.94415 -8.39788,-0.43008 -2.29035,-1.22152 -5.15433,-0.93584 -7.44468,-2.00467 -3.66457,-1.06883 -6.42181,-3.66403 -9.01754,-6.10707 l -0.14394,0.14395 -0.14219,0.28613 -0.0473,0 0.19134,-0.43008 0.14219,-0.14218 -0.14219,-0.14395 c -2.44305,-2.13766 -5.07718,-4.26604 -7.82561,-6.25101 -1.98498,-1.5269 -4.08519,-2.90027 -5.91748,-4.57986 -2.74842,-1.83228 -6.10751,-2.75823 -8.39787,-5.20128 -2.44304,-1.67959 -4.00805,-4.12384 -6.29842,-6.10881 -3.20649,-3.20651 -7.76847,-4.58907 -11.738407,-6.72674 -3.2065,-2.90111 -5.954983,-6.27085 -9.161475,-9.01928 -2.443058,-2.44306 -5.516008,-4.28369 -8.11175,-6.72673 -1.832283,-1.67959 -3.339091,-3.50244 -4.866,-5.48741 -1.832275,-2.59573 -3.979908,-5.04903 -5.964875,-7.49208 -2.748425,-3.05382 -5.316066,-6.06887 -8.827941,-8.20654 -3.664575,-3.05381 -5.658192,-7.63502 -8.253934,-11.45228 -1.832283,-2.59574 -2.749333,-5.6582 -4.581616,-8.25394 -1.5269,-2.13766 -1.220375,-4.88745 -3.052659,-6.87242 -2.137666,-1.98498 -1.985575,-5.03853 -3.054408,-7.63428 -1.832517,-1.22182 -4.285283,-1.23087 -5.964883,-2.91046 -2.901117,-2.29035 -4.293875,-6.12708 -5.057325,-9.63895 -0.152692,-2.29035 2.613533,-4.24679 1.239308,-6.53714 -0.610758,-1.83228 -1.849925,-3.8447 -0.475717,-5.677 0.916142,-1.22152 -0.763741,-3.94225 -1.5272,-1.95728 0.458067,1.6796 -1.202725,2.72058 -2.576941,1.19368 -2.290359,-0.45807 -3.063609,-3.19675 -5.201275,-3.9602 -2.290359,-0.30538 -4.580317,0.92488 -6.870667,-0.14395 -2.137667,-0.61076 -2.719125,-2.88276 -2.719125,-4.86774 0.152692,-1.22151 -1.680067,-3.54032 -2.290825,-1.86073 C 8.4123117,114.20434 7.47632,111.6099 6.71287,110.84645 5.3386617,108.55609 5.7872283,105.06212 3.038795,103.6879 2.695245,103.45886 2.40692,103.36562 2.1663617,103.36842 Z m 26.3504497,6.53889 c -1.016125,0.0964 -4.225283,2.71386 -3.175541,3.23873 l 0.458166,1.37449 c -0.916141,0.76346 3.206917,-1.22206 2.138092,-2.74897 1.049742,-1.43148 1.04115,-1.90805 0.579283,-1.86425 z m 14.211784,0.22295 c -0.5535,0.0382 -1.125959,0.49609 -0.43885,1.48859 0.152683,-0.1527 0.458225,-0.15279 0.763608,-0.45817 0.76345,-0.68711 0.228742,-1.0686 -0.324758,-1.03042 z m -26.891109,1.1726 c -0.354883,0.0772 -0.154083,0.81237 -0.421291,1.07958 0.76345,0.61076 1.679708,-0.91635 0.610875,-1.06904 -0.07633,-0.0191 -0.138884,-0.0216 -0.189584,-0.0105 z m -1.302508,0.49503 c -0.104567,0.002 -0.264233,0.0787 -0.493267,0.27911 0.372175,1.11655 0.946375,-0.28686 0.493267,-0.27911 z m 30.963658,3.49853 c -1.240016,-0.004 -1.223316,2.06689 -0.154483,2.73493 l 0.152717,0 0.30545,0 c 1.984975,0.61076 1.67965,-2.29087 0.305433,-2.59625 -0.229033,-0.0954 -0.431975,-0.13808 -0.609117,-0.13868 z m 515.368672,29.01866 c -0.39365,0.0644 -1.45306,1.00987 -1.56757,1.35342 0.45807,0.30538 1.22186,-0.76367 1.67992,-1.06904 0.0764,-0.22904 0.0188,-0.30585 -0.11235,-0.28438 z"
         id="path4247" />
    </clipPath>
  </defs>
  <sodipodi:namedview
     pagecolor="#ffffff"
     bordercolor="#666666"
     borderopacity="1"
     objecttolerance="10"
     gridtolerance="10"
     guidetolerance="10"
     inkscape:pageopacity="0"
     inkscape:pageshadow="2"
     inkscape:window-width="1600"
     inkscape:window-height="837"
     id="namedview94"
     showgrid="false"
     fit-margin-top="0"
     fit-margin-left="0"
     fit-margin-right="0"
     fit-margin-bottom="0"
     inkscape:zoom="0.80240837"
     inkscape:cx="734.6345"
     inkscape:cy="300.56632"
     inkscape:window-x="-8"
     inkscape:window-y="-8"
     inkscape:window-maximized="1"
     inkscape:current-layer="svg2" />
  <path
     style="fill:#ffffff"
     d="m 16.531454,199.00022 c 1.037245,4.16082 2.66574,8.11685 4.185547,12.06836 1.09938,4.03103 4.030253,7.14438 5.496094,10.99219 1.465819,2.38197 3.104856,4.78757 4.753906,6.98633 2.93165,3.84779 6.606184,6.93857 9.904296,10.41992 1.09937,1.2826 2.20958,2.7932 3.49219,3.89258 0.73291,1.64906 2.00365,2.55541 3.83594,2.92187 2.38197,0.73291 3.27673,3.44664 4.92578,5.0957 1.2826,1.28259 1.87914,3.12756 2.97851,4.41016 0.91614,2.38197 1.82995,4.6024 2.7461,6.98437 0.91614,2.93165 2.33617,5.48631 3.43554,8.41797 0.91614,2.01551 1.11036,4.18884 2.57618,5.83789 1.46584,1.64906 3.65441,2.6007 5.66992,3.15039 1.09937,0.18323 2.94445,0.89356 3.49414,-0.57226 0.36647,-2.38197 2.38146,-0.56095 3.66406,0.17187 4.39748,1.83229 8.61192,4.44188 12.82617,6.64063 1.2826,0.54969 2.95581,1.0537 3.32227,2.51953 0.36646,2.93165 1.29175,5.72619 1.6582,8.47461 0.18323,4.03104 1.10108,8.05296 1.83398,12.08398 -0.36645,2.19874 1.80933,2.91968 2.17579,4.75196 0.18323,2.01551 2.357053,3.46923 2.173823,5.66797 l 0.40235,-0.40235 0,0.17383 -0.40235,0.39844 c 0.18323,1.83228 1.64868,2.96702 2.74805,4.0664 2.01551,2.38196 3.69969,4.91223 5.89844,6.92774 1.64905,1.09938 2.71386,2.95567 4.17969,4.23828 2.01551,1.46582 4.43274,2.9442 4.98242,5.32617 0.18323,3.66457 2.02636,6.94993 3.49219,10.24805 1.09937,0.91615 2.55332,1.8225 3.83593,2.92187 1.2826,1.28261 2.93296,2.19642 4.58203,2.7461 1.64905,0.54969 2.38159,2.20018 2.74805,3.66601 0.54968,1.2826 2.1643,1.49964 3.26367,1.31641 2.01551,0.18323 4.43261,-0.0455 5.89844,1.60351 1.09938,2.01552 3.67516,2.04907 5.32422,3.14844 1.83228,2.01552 4.00742,4.17955 6.75586,5.0957 1.2826,1.28261 2.18884,3.13892 3.83789,4.23829 3.11489,1.46583 4.93297,4.5703 6.58203,7.50195 2.01552,0.73292 4.23997,1.29357 6.07227,2.57617 1.83228,1.64905 3.50316,4.00768 6.06836,4.92383 2.01552,1.28259 2.8856,3.66394 5.26757,4.58008 3.62852,1.66307 5.91056,5.09247 8.75586,7.78906 l 885.19534,0 -2.3144,-51.24805 0.1132,0 -0.2285,-3.3789 -0.6289,-13.80078 -0.3437,0 -0.3457,-4.17774 -3.1485,-128.49023 -0.066,-2.9043 -1053.673846,0 z"
     id="rect6"
     inkscape:connector-curvature="0" />
  <path
     d="m 126.97872,1.006078 c -0.41375,0.055802 -0.70619,0.5181863 -0.35547,1.5703126 -0.18323,0.54969 -0.18359,0.9151537 -0.18359,1.4648437 -0.73291,3.11488 0.73351,0.9162844 1.2832,-0.9160156 0.82452,-1.13373 0.0824,-2.0362007 -0.56054,-2.1191407 -0.0625,-0.008062 -0.12449,-0.007972 -0.1836,0 z M 97.713097,4.0353749 c -0.0962,0.001 -0.1858,0.016016 -0.26953,0.041016 -1.00491,0.30061 -1.00633,2.2308587 0.23047,2.9179687 0.73292,0.91615 3.114753,4.0211204 0.91601,3.8378904 -1.09937,-1.4658197 -2.54393,-1.8435204 -4.00977,-0.74414 -0.36644,0.18323 -0.94994,0.158566 -1.3164,0.341796 -13.19245,21.43773 -26.37396,44.183364 -39.56641,65.621094 -1.09937,2.01551 -2.56469,3.86962 -3.66406,6.06836 -0.73291,2.93165 -2.18687,5.46178 -3.83594,7.84375 -1.83228,2.93166 -3.86022,5.852768 -6.24219,8.417968 -2.198728,2.381972 -3.480579,5.509022 -5.496089,8.074222 -1.83228,2.74843 -4.421262,5.1406 -6.070312,8.07226 -1.2826,1.46583 -1.809197,3.28809 -3.091797,4.75391 -2.74843,2.74843 -4.604368,6.23045 -6.986328,9.16211 -1.64906,2.01551 -3.112295,4.04149 -4.578125,6.24023 -2.74843,3.48134 -4.9500617,7.31628 -7.3320307,11.16407 -1.282601,1.64907 -1.969707,3.68651 -3.435547,5.15234 -0.54969,1.83228 -1.476927,3.66577 -1.660157,5.49805 0,2.38197 -0.53647199,4.94811 -0.169922,7.33007 0.732921,2.19874 1.097169,4.38525 1.830079,6.58399 0.91615,1.64905 3.618642,1.47667 4.351562,3.49219 0.54968,1.46582 0.780025,2.94432 1.146485,4.41015 0.916139,4.39749 3.2540107,8.06236 5.2695307,11.91016 1.09937,1.83228 1.682742,3.98485 2.232422,6.18359 0.278932,1.56201 0.666287,3.08728 1.111328,4.5918 l 1053.173824,0 -1.6386,-71.98438 -19.8125,-78.789059 0,-0.171874 c -2.7484,0.18323 -5.8283,0.138193 -7.8438,-2.060547 -4.0311,-1.83228 -8.2568,-3.803826 -12.6543,-4.353516 -2.7484,-0.91614 -6.034,-0.743882 -8.416,-2.576172 -3.2981,-2.38197 -7.7433,-2.222761 -11.2246,-4.238281 -1.2368,-0.68711 -2.4781,-0.911716 -3.7793,-0.916016 -2.1687,-0.008 -4.4074,0.631774 -6.46874,1.089844 -2.7485,0.36646 -5.3126,2.209846 -8.2442,1.660156 -2.9317,0 -5.8414,-0.355185 -8.5898,-0.171875 -2.5652,0.73291 -4.9709,2.015013 -6.9864,3.664063 -2.9317,2.19875 -6.7687,0.929323 -10.25,0.746094 -2.1987,-0.549681 -4.236,0.330317 -6.0683,1.429687 -2.9317,-0.36645 -6.4119,0.0016 -8.2442,2.75 -2.1987,2.56521 -2.7475,6.778445 -6.4121,7.328125 -3.8477,1.2826 -7.83576,0.755371 -11.68356,1.488281 -1.64906,0.91614 -1.12157,3.469488 -3.32031,3.835938 -2.56519,2.38197 -4.23582,6.402583 -7.90039,7.501953 -1.64906,0.91614 -3.65246,1.305051 -5.66797,1.488281 -2.5652,0.54969 -5.32579,-0.73291 -8.07422,0 -2.38196,0 -4.94811,-0.538449 -7.33008,0.744141 -2.74842,0.91615 -5.49767,0.173603 -8.24609,1.089844 -3.29812,0.73291 -6.5609,0.891611 -9.67578,-0.574219 -2.19874,-0.73292 -4.21533,-1.441167 -6.41407,-0.341797 -2.5652,0.36646 -4.98007,1.807492 -7.72851,1.257812 -3.11488,0.18323 -6.04528,-1.79809 -9.16016,-1.43164 -4.58072,0 -8.03964,3.459951 -12.2539,4.925781 -2.01551,0.54968 -4.22668,0.559002 -6.24219,-0.173828 -2.38197,-1.09937 -5.09546,-1.99035 -6.92774,-4.005859 -2.01551,-1.282601 -4.07737,-3.139036 -6.64257,-3.322266 -2.74843,-0.54968 -4.91418,-2.186878 -6.92969,-3.835938 -3.66458,-1.46584 -7.3635,-3.514897 -11.39453,-3.148437 -3.66457,0 -6.75535,2.049326 -10.41992,1.316406 -5.1304,-0.91614 -9.90562,2.003658 -14.48633,3.835938 -3.84779,2.01551 -7.29552,4.787702 -11.50977,6.070312 -3.48134,1.83228 -5.88657,4.923704 -9.73437,5.839844 -2.74842,1.09938 -5.86217,0.938467 -8.24414,2.404297 -2.01551,2.38197 -2.37182,6.000239 -5.66993,7.099609 -2.19874,0.91614 -4.77453,2.200061 -5.32421,4.582031 -1.2826,2.74842 -4.93689,2.770374 -6.58594,5.152344 -2.19874,2.19874 -5.31249,2.00586 -8.24414,2.00586 -1.83228,1.099369 -2.78368,3.675283 -4.98242,4.408203 -1.83228,1.2826 -4.73853,0.0107 -5.83789,2.57617 -1.46583,1.2826 -3.87365,-2.4e-4 -5.15626,1.83203 -0.7329,2.19876 -2.92906,1.10107 -4.57812,1.83399 -2.19874,1.2826 -2.01684,4.59131 -4.58203,5.32422 -2.01552,0.36646 -4.17003,1.24828 -6.18555,2.34765 -3.11488,1.83229 -5.88475,4.22473 -8.8164,6.24024 -2.74843,2.19874 -6.02452,4.2362 -9.50586,5.15234 -2.93166,1.09937 -5.49571,3.0935 -8.24414,4.92578 -2.93166,2.74843 -6.96312,3.87 -10.99414,3.32032 -1.83229,0 -4.07556,-0.77833 -5.72461,0.6875 -2.74843,1.83229 -6.59691,0.36607 -9.16211,2.74804 -3.66458,2.01552 -7.51268,4.60462 -11.91016,5.1543 -2.74843,0.36646 -5.66759,0.16995 -8.41602,-0.7461 -3.84779,-1.09936 -8.58005,0.72194 -11.51171,-2.57617 -2.01551,-2.38196 -4.97827,-3.83555 -6.81055,-6.58398 -2.56521,-2.19873 -3.49364,-6.19678 -7.1582,-6.92969 -1.83229,-0.54969 -3.83764,1.06544 -5.66993,-0.40039 -3.29811,-0.91614 -6.04527,2.0398 -9.16015,2.40625 -4.39749,1.2826 -9.16148,1.9795 -13.74219,0.51367 -2.19874,-0.18322 -4.21337,-1.23511 -6.41211,-1.60156 l 0,-0.23047 -0.34375,0 c -2.74842,-0.91615 -5.48643,-1.64685 -7.50195,-1.83008 -3.11488,0.18323 -4.24926,-3.10498 -6.81446,-3.83789 -4.21426,-0.18323 -7.68467,-2.73839 -11.16601,-4.7539 -1.64906,-1.2826 -4.37257,0.35681 -2.17383,2.00586 2.19875,1.64907 -0.76853,2.22119 -2.23437,1.48828 -2.5652,0 -1.08777,-2.55334 -2.00391,-3.83594 -2.01551,-1.2826 -3.66381,-3.12756 -5.49609,-4.41016 -1.46583,-1.83229 -3.66578,-0.9027 -5.49805,-1.08593 -2.56521,-0.54968 -5.12965,0.69652 -5.4961,3.26171 -0.18322,2.38198 -2.73644,3.50538 -4.75195,4.23829 -3.11489,0.73291 -5.49779,3.27465 -7.33008,5.83984 -2.01552,1.09938 -4.77635,0.9044 -6.24218,2.91992 -2.01551,2.19874 -4.94615,1.12182 -7.32813,1.48828 -2.38197,0 -3.30882,2.01697 -4.4082,3.66602 -1.83227,1.28261 -1.43127,4.93518 -4.17969,4.75195 -2.19874,-0.36645 -3.3335,1.50134 -4.06641,3.15039 -1.09937,2.19874 -3.83568,1.08581 -5.66796,2.00196 -1.64906,2.19873 -3.49377,4.38549 -6.24219,4.75195 -3.48134,0.36645 -7.11241,0.74609 -10.59375,0.74609 -2.93167,0.36646 -5.32188,-1.6488 -8.07031,-1.83203 -3.48134,-0.54968 -4.23986,4.22485 -6.98829,5.32422 -3.48135,0.91615 -5.49584,3.82419 -7.32812,6.75586 -2.01551,3.48133 -6.57226,2.37193 -9.50391,4.75391 -2.19874,2.56519 -4.58361,4.7517 -7.33203,6.58398 -3.8478,1.46583 -8.07177,1.28223 -11.73633,2.74805 -2.93166,0.73292 -4.92357,3.12743 -6.75586,5.32617 -1.64905,2.93166 -4.99326,4.60474 -8.47461,4.23828 -2.5652,0.54968 2.61037,0.91381 1.14454,2.74609 -1.09937,1.64906 -3.48059,2.53284 -5.4961,2.34961 -1.2826,0.54968 -2.94431,0.56091 -4.41015,0.74414 -2.74842,0.36646 -5.49573,0.7555 -8.24414,0.57227 -1.64907,0 -3.28808,-0.72143 -4.75391,-1.08789 -3.29811,-0.54969 -6.09056,-2.41553 -9.38867,-3.14844 -4.03102,-0.91614 -7.87913,-1.80932 -11.91016,-2.17578 -5.49685,0.54969 -10.78757,1.65991 -15.91797,3.49219 -4.21425,2.5652 -8.79697,4.38549 -13.74414,4.75195 -1.2826,0 -3.68665,0.33252 -4.23633,-0.40039 -5.49686,-1.09937 -10.76485,-1.27099 -16.26171,-2.00391 -1.46583,0.18323 -3.34277,-0.0112 -4.8086,1.08789 -2.93165,2.38197 -6.96323,1.13345 -10.07812,-0.51562 -2.74842,-1.46582 -6.18518,-1.12365 -8.9336,-2.40625 -4.39749,-1.28259 -7.70543,-4.39648 -10.82031,-7.32813 l -0.17383,0.17188 -0.16992,0.34375 -0.0566,0 0.23047,-0.51563 0.16992,-0.16992 -0.16992,-0.17383 c -2.93166,-2.56519 -6.09446,-5.11803 -9.39258,-7.5 -2.38197,-1.83228 -4.90087,-3.48058 -7.09961,-5.49609 -3.29811,-2.19874 -7.32969,-3.31054 -10.07812,-6.24219 -2.93165,-2.01551 -4.81016,-4.94811 -7.5586,-7.33008 -3.84779,-3.84781 -9.32201,-5.50706 -14.08594,-8.07226 -3.8478,-3.48134 -7.14635,-7.52611 -10.99414,-10.82422 -2.93167,-2.93167 -6.61753,-5.13866 -9.73242,-8.07031 -2.19874,-2.01551 -4.00755,-4.20397 -5.83984,-6.58594 -2.19873,-3.11488 -4.77625,-6.05857 -7.1582,-8.99023 -3.29812,-3.66458 -6.3795,-7.28246 -10.59376,-9.84766 -4.39749,-3.664572 -6.7894,-9.161479 -9.90429,-13.742189 -2.19874,-3.11489 -3.29931,-6.79137 -5.49805,-9.90625 -1.83228,-2.5652 -1.46337,-5.864124 -3.66211,-8.246094 -2.5652,-2.38198 -2.38341,-6.047219 -3.66601,-9.162109 -2.19902,-1.46619 -5.14269,-1.476678 -7.15821,-3.492188 -3.48134,-2.74842 -5.15222,-7.352156 -6.06836,-11.566406 -0.18323,-2.74842 3.1354,-5.09533 1.48633,-7.84375 -0.73291,-2.19874 -2.21936,-4.61375 -0.57031,-6.8125 1.09937,-1.46583 -0.91588,-4.731579 -1.83203,-2.349609 0.54968,2.01552 -1.44469,3.265873 -3.09375,1.433593 -2.74843,-0.54969 -3.67504,-3.837766 -6.24024,-4.753906 -2.74843,-0.36646 -5.49767,1.110715 -8.24609,-0.171875 -2.5652,-0.73292 -3.26172,-3.459827 -3.26172,-5.841797 0.18323,-1.46582 -2.01709,-4.247932 -2.75,-2.232422 -1.2826,1.2826 -2.40612,-1.829953 -3.32226,-2.746093 -1.64905,-2.74843 -1.11009,-6.9427373 -4.408213,-8.5917972 -0.41226,-0.27485 -0.7582,-0.3861726 -1.04687,-0.3828126 z m 31.621093,7.8476561 c -1.21935,0.115641 -5.07024,3.254926 -3.81055,3.884766 l 0.54883,1.650391 c -1.09937,0.91615 3.849,-1.466538 2.56641,-3.298828 1.25969,-1.71778 1.24955,-2.288888 0.69531,-2.236329 z m 17.05469,0.267579 c -0.6642,0.0458 -1.35187,0.594156 -0.52734,1.785156 0.18322,-0.18324 0.54955,-0.182368 0.91601,-0.548828 0.91614,-0.82453 0.27553,-1.282138 -0.38867,-1.236328 z m -32.26953,1.40625 c -0.42586,0.0926 -0.18521,0.974272 -0.50586,1.294921 0.91614,0.732911 2.01502,-1.098019 0.73242,-1.28125 -0.0916,-0.0229 -0.16572,-0.02697 -0.22656,-0.01367 z m -1.56446,0.59375 c -0.12548,0.002 -0.31695,0.09551 -0.59179,0.335937 0.44661,1.33986 1.13552,-0.345237 0.59179,-0.335937 z m 37.15625,4.199218 c -1.48802,-0.005 -1.46619,2.47961 -0.18359,3.28125 l 0.18164,0 0.36719,0 c 2.38197,0.73291 2.01625,-2.748774 0.36719,-3.115234 -0.27484,-0.11452 -0.51986,-0.165296 -0.73243,-0.166016 z M 768.1545,53.172094 c -0.47238,0.0773 -1.74344,1.210787 -1.88086,1.623047 0.54969,0.36646 1.46595,-0.916763 2.01563,-1.283203 0.0917,-0.27485 0.0226,-0.365614 -0.13477,-0.339844 z"
     id="rect4"
     style="fill:#006d21;fill-opacity:1"
     inkscape:connector-curvature="0" />
  <g
     transform="matrix(1.2,0,0,1.2,95.113687,-120.00658)"
     id="g10"
     clip-path="url(#clipPath4245)"
     style="fill:#ffffff;fill-rule:evenodd">
    <path
       d="m 187.516,140.616 c -0.859,11.589 -1.89,31.983 7.957,34.075 11.91,1.145 5.343,-20.158 9.654,-24.021 0.815,-1.909 2.318,-1.919 2.442,0.489 0,6.023 0,12.047 0,18.07 -0.109,5.876 3.754,7.607 6.755,8.821 3.123,-0.241 5.208,-0.137 6.432,2.902 0.488,10.419 0.977,20.838 1.465,31.257 0,0 7.243,2.073 7.588,-17.581 0.346,-11.54 -2.305,-21.2 -0.751,-23.445 0.055,-2.206 2.872,-2.338 4.826,-1.263 3.113,2.196 4.5,4.908 9.338,3.823 7.362,-2.028 11.787,-5.609 11.896,-11.262 -0.43,-5.372 -1.032,-10.745 -3.36,-16.117 0.325,-0.977 -1.421,-3.508 -1.097,-4.485 1.323,2.072 3.336,1.9 3.794,0 -1.253,-4.129 -3.197,-8.085 -6.349,-9.797 -2.605,-2.295 -6.417,-1.826 -7.813,2.96 -0.647,5.515 1.988,12.067 6.004,17.409 0.853,2.087 2.051,5.555 1.524,8.678 -2.137,1.219 -4.274,0.711 -6.064,-1.179 0,0 -5.86,-4.395 -5.86,-5.372 1.555,-9.956 0.345,-11.085 -0.517,-13.848 -0.602,-3.814 -2.412,-5.037 -3.878,-7.642 -1.466,-1.554 -3.449,-1.554 -4.397,0 -2.59,4.49 -1.382,14.129 0.489,18.446 1.352,3.971 3.418,6.463 2.442,6.463 -0.804,2.244 -2.466,1.726 -3.675,-0.864 -1.726,-5.353 -2.072,-13.34 -2.072,-16.937 -0.518,-4.459 -1.087,-13.97 -4.022,-16.387 -1.79,-2.438 -4.444,-1.249 -5.371,0.976 -0.193,4.426 -0.213,8.851 0.285,12.93 2.013,7.154 2.645,13.444 3.622,20.77 0.271,9.813 -5.674,4.258 -5.402,-0.607 1.371,-6.319 1.015,-16.265 -0.203,-18.786 -0.966,-2.521 -2.106,-3.143 -4.455,-2.728 -1.865,-0.114 -6.664,5.126 -8.011,13.818 0,0 -1.149,4.474 -1.639,8.446 -0.659,4.489 -3.614,7.657 -5.686,-0.631 -1.791,-6.024 -2.892,-20.854 -5.891,-17.381 z"
       id="path12"
       inkscape:connector-curvature="0" />
    <path
       d="m 219.88,188.161 c -10.51,5.138 -20.675,9.931 -31.014,14.896 0.378,-7.03 14.745,-19.72 24.543,-19.899 6.377,0.178 4.775,2.471 6.471,5.003 z"
       id="path14"
       inkscape:connector-curvature="0" />
    <path
       d="m 214.462,197.879 c -16.345,42.133 38.275,48.004 44.379,1.726 0.575,-1.899 2.878,-3.799 3.281,-0.691 -1.267,41.902 -42.249,44.781 -49.213,31.599 -1.726,-3.107 -2.245,-10.014 -2.418,-14.159 -1.036,-8.23 -5.352,-5.065 -6.043,3.108 -0.691,4.547 -0.518,5.815 -0.518,10.189 2.187,33.096 54.97,18.879 63.545,-8.461 4.547,-15.139 -0.749,-26.304 1.726,-26.248 5.238,5.642 12.547,0.749 14.159,-1.208 0.691,-0.979 2.419,-1.611 3.627,-0.345 4.086,2.937 11.283,1.553 12.778,-3.627 0.864,-5.065 1.555,-10.303 1.728,-15.712 -3.34,1.037 -5.814,1.726 -6.044,3.108 -0.231,1.497 -0.46,2.992 -0.691,4.489 -0.287,1.44 -3.167,1.496 -3.281,-0.346 -1.266,-5.756 -6.504,-6.504 -9.67,2.419 -2.13,1.726 -5.986,2.072 -6.39,-0.518 0.518,-5.986 -1.9,-6.793 -6.734,-3.972 -1.554,-11.857 -3.107,-23.196 -4.662,-35.053 2.015,-0.058 3.858,1.438 5.7,-0.864 -2.017,-6.273 -6.275,-19.109 -8.636,-20.03 -1.151,-1.381 -2.131,-0.518 -3.626,-0.173 -2.532,0.806 -4.893,2.993 -4.145,7.253 2.993,18.188 4.951,32.06 7.944,50.249 0.46,2.13 -1.324,4.948 -3.626,4.661 -3.914,-2.648 -4.89,-8 -11.569,-7.771 -4.835,0.058 -10.362,5.296 -11.051,10.363 -0.806,4.027 -1.095,8.401 -0.002,11.913 3.398,4.086 7.484,3.685 11.053,2.763 2.935,-1.208 5.352,-4.144 6.389,-3.454 0.691,0.864 0.171,10.532 -13.815,17.958 -8.461,3.799 -15.196,4.663 -18.82,-2.245 -2.245,-4.317 0.172,-20.721 -5.355,-16.921 z"
       id="path16"
       inkscape:connector-curvature="0" />
    <path
       d="m 283.792,155.052 c 3.281,-1.209 18.824,-18.994 18.824,-18.994 -0.807,-0.691 -1.527,-1.209 -2.333,-1.9 -0.864,-0.748 -0.777,-1.496 0,-2.245 3.856,-2.244 2.619,-7.166 0.605,-9.41 -3.339,-1.497 -6.246,-1.008 -8.376,0.086 -2.705,2.59 -3.337,6.734 -1.207,9.324 2.073,0.979 4.144,3.08 2.762,4.231 -6.359,6.792 -23.771,18.505 -21.756,18.908 0.43,0.576 11.137,0.547 11.481,0 z"
       id="path18"
       inkscape:connector-curvature="0" />
    <path
       d="m 189.934,217.992 c -5.829,9.286 -6.336,23.159 -3.12,27.295 1.709,1.954 4.517,2.81 6.594,2.198 3.662,-1.588 5.265,-9.008 4.396,-11.722 -1.222,-1.913 -2.185,-2.216 -3.405,-0.589 -2.577,5.232 -3.647,1.643 -3.873,-1.281 -0.395,-5.545 0.127,-10.652 0.729,-14.696 0.641,-4.145 -0.011,-2.878 -1.321,-1.205 z"
       id="path20"
       inkscape:connector-curvature="0" />
    <path
       d="m 439.017,203.122 c -5.636,-12.131 -13.438,-24.119 -15.921,-28.724 -2.482,-4.607 -21.223,-31.805 -23.982,-34.864 -6.088,-7.235 9.886,3.013 -2.021,-11.351 -4.54,-3.895 -4.804,-4.132 -8.572,-7.31 -1.901,-1.349 -6.542,-3.813 -7.364,0.271 -0.413,3.601 -0.19,5.554 0.415,8.552 0.464,1.999 3.376,5.347 4.808,7.287 19.014,25.558 35.874,51.369 52.133,83.821 2.567,-1.22 2.006,-15.652 0.504,-17.682 z"
       id="path22"
       inkscape:connector-curvature="0" />
    <path
       d="m 414.279,243.71 c -1.108,1.244 2.736,6.565 7.732,6.56 8.355,-0.97 15.71,-5.663 22.52,-18.017 1.821,-2.881 5.022,-9.043 5.116,-13.823 0.637,-28.025 -1.403,-49.832 -5.602,-70.087 -0.269,-1.973 -0.105,-4.292 0.229,-4.884 0.541,-0.646 2.376,0.003 3.349,-1.593 1.428,-1.458 -3.792,-13.535 -6.768,-18.187 -1.057,-2.077 -1.425,-3.464 -3.174,0.244 -1.84,3.014 -3.076,8.273 -2.931,13.187 3.986,27.595 5.21,51.736 7.815,79.332 0.212,2.669 -0.18,6.547 -1.954,8.093 -6.562,6.852 -16.033,15.286 -26.332,19.175 z"
       id="path24"
       inkscape:connector-curvature="0" />
    <path
       d="m 527.145,243.562 c -5.996,3.466 -6.003,7.453 -1.155,7.597 8.355,-0.97 18.227,-1.664 25.037,-11.945 1.822,-2.881 3.986,-10.672 4.08,-15.452 0.637,-28.025 -0.366,-48.943 -4.565,-69.198 -0.269,-1.973 -1.142,-6.514 -0.808,-7.106 0.541,-1.387 3.265,0.151 4.238,-1.445 1.428,-1.458 -7.051,-12.35 -10.027,-17.002 -1.057,-2.077 -1.425,-3.464 -3.174,0.244 -1.84,3.014 -2.483,8.421 -1.746,13.187 4.43,29.965 7.728,52.477 8.408,79.036 -0.381,2.521 -0.476,3.88 -1.658,7.056 -2.615,3.352 -5.512,7.543 -8.229,9.569 -2.716,2.025 -8.511,3.958 -10.401,5.459 z"
       id="path26"
       inkscape:connector-curvature="0" />
    <path
       d="m 531.639,216.7 c -0.069,-7.008 0.099,-13.059 -0.132,-18.286 -0.23,-5.227 -1.154,-9.483 -2.963,-13.193 -1.712,-3.978 -0.649,-7.175 -1.453,-11.412 -0.803,-4.236 -0.605,-10.58 -1.819,-15.607 -0.333,-1.963 -1.353,-8.25 -1.038,-8.853 0.495,-1.403 2.38,0.044 3.301,-1.582 1.379,-1.503 -4.783,-17.447 -7.909,-22 -1.124,-2.041 -3.165,-1.342 -5.682,1.977 -2.334,2.184 -1.468,7.165 -0.577,11.904 5.995,31.286 10.467,59.603 9.491,89.385 -0.299,2.532 8.843,-7.553 8.781,-12.333 z"
       id="path28"
       inkscape:connector-curvature="0" />
    <path
       d="m 487.34,177.892 c -3.771,-0.069 -11.669,-7.338 -13.974,-11.597 -0.871,-2.443 -0.312,-4.826 0.456,-6.222 1.396,-0.908 3.544,-1.928 5.15,-0.95 0,0 1.665,2.33 1.343,2.626 2.059,0.986 2.933,0.419 3.142,-0.419 0.14,-1.466 -0.609,-2.34 -0.617,-3.955 0.873,-4.38 5.879,-5.061 7.764,-2.268 1.38,1.703 1.886,5.321 2.095,7.764 -0.022,1.248 -2.043,-0.216 -3.191,0.084 -1.149,0.301 -1.425,1.626 -1.514,2.825 -0.208,3.176 -0.584,8.272 -0.654,12.112 z"
       id="path30"
       inkscape:connector-curvature="0" />
    <path
       d="m 417.753,224.469 c 1.039,-9.522 -0.384,-26.48 -0.479,-32.099 -0.381,-13.274 -2.549,-38.912 -3.581,-43.195 -1.163,-8.074 3.321,0.886 2.7,-3.807 -1.454,-8.063 -5.926,-13.528 -11.183,-20.913 -1.695,-2.402 -1.638,-2.892 -4.255,0.589 -2.896,6.57 -0.396,11.089 0.352,16.205 3.791,16.67 6.003,32.009 7.033,47.172 1.03,15.164 1.346,31.558 0.406,47.528 2.841,0.112 7.409,-4.596 9.007,-11.48 z"
       id="path32"
       inkscape:connector-curvature="0" />
    <path
       d="m 544.473,209.217 c -6.649,-11.157 -16.683,-23.24 -19.364,-27.733 -2.68,-4.494 -25.352,-33.746 -28.241,-36.682 -8.294,-8.713 3.804,-1.418 -1.588,-8.148 -4.56,-5.007 -5.89,-6.579 -9.793,-9.59 -1.957,-1.265 -3.143,-3.68 -3.786,0.436 -0.256,3.616 -0.523,7.799 -0.28,10.847 -0.014,1.694 1.75,4.877 3.265,6.753 20.109,24.706 42.042,49.933 59.699,81.646 2.512,-1.331 1.677,-15.566 0.088,-17.529 z"
       id="path34"
       inkscape:connector-curvature="0" />
    <path
       d="m 242.792,188.632 c -0.479,0.839 -1.544,1.926 -1.187,3.051 0.747,1.012 1.343,1.217 2.587,1.272 1.079,0 2.587,0.255 2.911,-0.382 0.581,-0.64 1.023,-1.946 0.539,-3.179 -1.124,-2.809 -4.263,-1.762 -4.85,-0.762 z"
       id="path36"
       inkscape:connector-curvature="0"
       style="fill:#006421" />
    <path
       d="m 306.784,131.067 c -6.054,17.303 3.468,36.23 10.07,34.387 4.763,1.972 7.796,-7.089 9.746,-17.016 1.334,-2.786 2.342,-3.083 3.027,-1.651 -0.176,13.201 0.948,16.125 4.342,20.132 7.571,5.841 13.834,0.746 14.325,0.254 0.491,-0.491 5.895,-5.895 5.895,-5.895 1.312,-1.38 3.059,-1.461 4.912,-0.245 1.801,1.637 1.548,4.465 5.404,6.426 3.245,1.298 10.183,0.3 11.79,-2.496 2.163,-3.707 2.682,-4.98 3.684,-6.386 1.544,-2.055 4.176,-1.141 4.176,-0.492 -0.246,1.146 -1.791,2.293 -0.737,4.357 1.836,1.377 2.26,0.491 3.346,0.185 3.841,-1.836 6.725,-10.191 6.725,-10.191 0.17,-3.108 -1.572,-2.851 -2.702,-2.211 -1.474,0.901 -1.57,1.189 -3.044,2.09 -1.878,0.279 -5.521,1.524 -7.322,-1.265 -1.839,-3.353 -1.864,-8.031 -3.27,-11.413 0,-0.246 -2.44,-5.327 -0.169,-5.652 1.146,0.213 3.591,0.86 3.98,-1.199 1.202,-2.007 -2.574,-7.69 -5.158,-10.562 -2.243,-2.462 -5.351,-2.759 -8.351,-0.245 -2.101,1.933 -1.799,4.093 -2.211,6.14 -0.535,2.351 -0.421,5.243 1.965,8.351 2.097,4.135 5.923,9.46 4.667,16.948 0,0 -2.235,3.539 -6.129,3.076 -1.623,-0.354 -4.255,-1.043 -5.661,-11.427 -1.064,-7.86 0.251,-18.857 -3.085,-24.013 -1.205,-3.113 -2.085,-6.119 -5.021,-0.795 -0.789,2.091 -4.175,5.264 -1.719,11.79 2.009,4.138 2.827,10.872 1.915,18.364 -1.392,2.129 -1.701,2.85 -3.526,4.979 -2.564,2.757 -5.346,2.053 -7.477,1.024 -1.991,-1.342 -3.55,-2.036 -4.459,-6.299 0.164,-6.795 0.543,-17.918 -0.699,-20.278 -1.831,-3.655 -4.851,-2.333 -6.141,-1.229 -6.198,5.667 -9.26,15.229 -11.131,22.843 -1.719,5.549 -3.548,3.959 -4.834,1.72 -3.131,-2.934 -3.343,-25.878 -7.123,-22.106 z"
       id="path38"
       inkscape:connector-curvature="0" />
    <path
       d="m 325.011,168.682 c 2.749,-1.947 1.464,-3.308 5.575,0.802 5.147,8.8 8.455,20.196 8.951,30.293 -0.217,2.488 1.537,4.063 2.339,3.522 0.477,-5.841 14.681,-13.98 27.706,-15.17 1.992,-0.433 1.023,-4.25 1.348,-6.197 -0.781,-7.231 4.063,-13.814 10.853,-14.339 9.241,1.366 12.317,6.3 12.473,13.831 -0.998,14.458 -16.059,16.909 -24.521,18.062 -1.298,0.491 -1.839,1.09 0,1.798 l 35.456,0.161 1.809,1.045 c 0.217,0.845 -0.517,0.14 -1.917,2.445 -1.399,2.305 -3.463,7.62 -3.57,11.169 -10.564,3.397 -21.49,4.885 -32.595,6.228 -3.858,1.951 -5.77,4.551 -4.978,7.477 1.298,3.245 9.844,6.487 9.844,6.641 1.623,1.018 3.543,3.393 -0.459,8.26 -17.295,-0.761 -30.697,-8.121 -35.337,-18.509 -1.398,-1.084 -2.904,-0.006 -3.869,1.398 -6.752,8.704 -13.396,16.543 -24.908,20.704 -6.865,1.715 -13.893,-1.053 -17.212,-5.549 -2.222,-2.559 -2.137,-5.384 -2.953,-5.996 -3.71,1.641 -35.64,15.208 -31.593,8.888 7.771,-8.317 21.224,-14.427 33.105,-22.636 0.857,-2.75 2.416,-12.055 7.109,-15.085 0.271,0.023 -0.744,5.464 -0.642,7.759 0.053,1.884 -0.138,2.622 0.274,2.137 0.802,-0.511 15.218,-11.839 16.332,-15.313 1.406,-1.992 0.422,-7.037 0.422,-7.19 -2.704,-6.968 -6.496,-7.56 -7.902,-11.022 -1.266,-4.599 -0.693,-9.849 1.936,-11.312 2.334,-2.119 5.099,-1.857 7.649,0.459 2.912,2.608 5.498,7.705 6.246,11.502 -0.5,1.502 -3.81,-0.998 -4.959,-0.253 2.033,2.105 2.982,4.533 3.716,7.504 1.878,7.953 1.305,11.045 -0.585,16.188 -6.401,13.458 -14.581,17.474 -21.738,22.459 -0.191,0.068 -0.318,3.415 2.374,5.225 0.928,0.974 4.661,1.474 9.051,0.068 8.482,-4.626 17.288,-13.147 21.659,-22.64 1.269,-7.181 -0.491,-14.795 -2.358,-21.435 -2.813,-6.49 -6.126,-15.756 -6.126,-15.909 -0.109,-4.047 0.22,-5.451 1.995,-7.47 z"
       id="path40"
       inkscape:connector-curvature="0" />
    <path
       d="m 232.184,131.254 c 4.081,1.946 11.753,1.118 11.429,-5.462 0,-0.582 -0.148,-2.551 -0.206,-3.084 -0.833,-1.94 -3.106,-1.461 -3.621,0.542 -0.162,0.656 0.289,1.724 -0.305,2.054 -0.341,0.344 -1.645,0.142 -1.591,-1.676 0,-0.579 -0.427,-1.202 -0.684,-1.569 -0.258,-0.169 -0.422,-0.216 -0.889,-0.216 -0.569,0.023 -0.56,0.171 -0.872,0.649 -0.132,0.487 -0.315,0.963 -0.315,1.515 -0.071,0.647 -0.315,0.878 -0.791,0.973 -0.532,0 -0.412,0.059 -0.843,-0.216 -0.256,-0.28 -0.576,-0.387 -0.576,-0.865 0,-0.495 -0.112,-1.296 -0.261,-1.623 -0.226,-0.298 -0.589,-0.436 -0.998,-0.541 -2.229,0.008 -2.383,2.55 -2.255,3.515 -0.167,0.182 -0.262,4.742 2.778,6.004 z"
       id="path42"
       inkscape:connector-curvature="0" />
    <path
       d="m 351.809,181.888 c 4.081,1.946 13.795,0.826 11.429,-5.462 0,-0.582 -0.148,-2.551 -0.206,-3.084 -0.833,-1.94 -3.106,-1.461 -3.621,0.542 -0.162,0.656 0.289,1.724 -0.305,2.054 -0.341,0.344 -1.645,0.142 -1.591,-1.676 0,-0.579 -0.427,-1.202 -0.684,-1.569 -0.258,-0.169 -0.422,-0.216 -0.889,-0.216 -0.569,0.023 -0.56,0.171 -0.872,0.649 -0.132,0.487 -0.315,0.963 -0.315,1.515 -0.071,0.647 -0.315,0.878 -0.791,0.973 -0.532,0 -0.412,0.059 -0.843,-0.216 -0.256,-0.28 -0.576,-0.387 -0.576,-0.865 0,-0.495 -0.112,-1.296 -0.261,-1.623 -0.226,-0.298 -0.589,-0.436 -0.998,-0.541 -2.229,0.008 -2.383,2.55 -2.255,3.515 -0.167,0.182 -0.262,4.742 2.778,6.004 z"
       id="path44"
       inkscape:connector-curvature="0" />
    <path
       d="m 421.565,160.931 c 4.081,1.946 11.753,1.118 11.429,-5.462 0,-0.582 -0.148,-2.551 -0.206,-3.084 -0.833,-1.94 -3.106,-1.461 -3.621,0.542 -0.162,0.656 0.289,1.724 -0.305,2.054 -0.341,0.344 -1.645,0.142 -1.591,-1.676 0,-0.579 -0.427,-1.202 -0.684,-1.569 -0.258,-0.169 -0.422,-0.216 -0.889,-0.216 -0.569,0.023 -0.56,0.171 -0.872,0.649 -0.132,0.487 -0.315,0.963 -0.315,1.515 -0.071,0.647 -0.315,0.878 -0.791,0.973 -0.532,0 -0.412,0.059 -0.843,-0.216 -0.256,-0.28 -0.576,-0.387 -0.576,-0.865 0,-0.495 -0.112,-1.296 -0.261,-1.623 -0.226,-0.298 -0.589,-0.436 -0.998,-0.541 -2.229,0.008 -2.383,2.55 -2.255,3.515 -0.167,0.182 -0.262,4.742 2.778,6.004 z"
       id="path46"
       inkscape:connector-curvature="0" />
    <path
       d="m 457.694,213.564 c -7.112,8.015 -3.976,21.272 -2.37,24.128 2.345,4.691 4.233,7.7 8.796,10.02 4.156,3.059 7.394,1.147 9.179,-0.995 4.182,-4.334 4.232,-15.399 6.195,-17.592 1.377,-4.028 4.844,-3.34 6.527,-1.555 1.631,2.345 3.552,3.857 5.948,5.133 3.901,3.441 8.559,4.07 13.148,0.934 3.136,-1.759 5.175,-4.032 7.011,-8.544 2.04,-5.456 0.903,-30.663 0.495,-45.603 -0.157,-1.172 -4.054,-20.545 -4.054,-20.761 0,-0.217 -0.515,-9.887 -0.944,-12.191 -0.075,-0.935 -0.307,-1.204 0.673,-1.085 1.039,0.874 1.181,0.929 1.83,1.217 1.049,0.192 1.988,-1.593 1.355,-3.236 -3.245,-5.985 -6.49,-11.971 -9.735,-17.956 -0.781,-0.769 -1.79,-1.614 -3.029,0.217 -1.184,1.038 -2.445,2.917 -2.406,5.332 0.288,4.255 1.036,8.585 1.324,12.84 1.298,7.283 2.597,14.567 3.895,21.85 1.226,15.576 1.533,28.323 2.759,43.899 -0.172,6.595 -2.222,12.345 -4.145,13.175 0,0 -2.926,1.696 -4.888,-0.177 -1.427,-0.573 -7.139,-9.519 -7.139,-9.519 -2.92,-2.677 -4.845,-1.912 -6.923,0 -5.73,5.533 -8.323,15.884 -12.217,23.023 -1.004,1.593 -3.842,2.957 -6.986,-0.116 -7.985,-10.909 -3.305,-26.429 -4.299,-22.438 z"
       id="path48"
       inkscape:connector-curvature="0" />
    <path
       d="m 423.396,122.724 c 3.656,1.53 6.235,8.936 5.394,12.552 -0.728,4.473 -2.667,9.304 -4.061,8.675 -1.515,-0.562 1.033,-4.446 -0.423,-8.522 -0.809,-2.653 -5.798,-7.5 -5.273,-8.929 -1.03,-2.994 2.121,-4.304 4.363,-3.776 z"
       id="path50"
       inkscape:connector-curvature="0" />
    <path
       d="m 469.465,217.957 c 0.769,-8.893 -0.529,-14.316 -0.76,-19.543 -0.23,-5.227 -5.912,-45.11 -7.064,-49.065 -1.39,-7.478 5.523,-1.003 4.768,-5.352 -2.392,-5.483 -8.344,-13.467 -10.213,-18.23 -1.124,-2.041 -0.652,-3.856 -3.169,-0.537 -2.334,7.631 -3.144,13.868 -2.253,18.607 5.995,31.286 12.143,57.299 11.167,87.081 2.843,0.019 6.12,-6.505 7.524,-12.961 z"
       id="path52"
       inkscape:connector-curvature="0" />
    <path
       d="m 531.932,135.328 c 3.333,1.657 5.285,10.938 4.917,13.589 -0.663,4.843 -2.431,10.073 -3.702,9.392 -1.381,-0.608 0.277,-7.182 -0.386,-9.226 -0.737,-2.872 -5.285,-8.12 -4.807,-9.667 -0.939,-3.241 1.934,-4.659 3.978,-4.088 z"
       id="path54"
       inkscape:connector-curvature="0" />
    <path
       d="m 284.221,201.139 c 3.188,1.217 5.057,8.037 4.705,9.986 -0.636,3.558 -2.328,7.401 -3.542,6.901 -1.322,-0.447 0.265,-5.278 -0.37,-6.78 -0.269,-3.643 -4.694,-5.529 -4.601,-7.103 -0.826,-2.893 1.851,-3.425 3.808,-3.004 z"
       id="path56"
       inkscape:connector-curvature="0" />
    <path
       d="m 361.25,211.375 c 4.115,0.261 6.171,3.49 2.317,4.844 -3.802,1.302 -7.456,2.319 -7.473,7.813 1.406,7.656 -1.929,5.029 -3.918,3.989 -2.344,-1.683 -8.922,-5.735 -9.859,-14.485 -0.141,-2.088 1.487,-3.845 4.108,-3.833 3.948,1.073 9.773,1.151 14.825,1.672 z"
       id="path58"
       inkscape:connector-curvature="0"
       style="fill:#006421" />
    <path
       d="m 199.006,120.517 c 4.704,1.418 4.982,8.332 4.635,10.353 -0.627,3.689 -2.293,7.673 -3.49,7.154 -1.302,-0.463 -0.051,-5.471 -0.676,-7.029 -0.697,-2.188 -4.672,-6.185 -4.221,-7.363 -0.885,-2.47 1.824,-3.551 3.752,-3.115 z"
       id="path60"
       inkscape:connector-curvature="0" />
    <path
       d="m 291.903,153.115 c -3.609,1.952 -5.009,7.771 -2.762,11.159 2.099,2.984 5.414,1.878 5.856,1.878 3.536,0.442 5.634,-6.629 5.634,-6.629 0,0 0.111,-1.988 -4.088,1.769 -1.767,0.331 -1.988,-0.332 -2.43,-1.327 -0.368,-1.841 -0.295,-3.682 0.552,-5.524 0.626,-1.767 -0.737,-2.541 -2.762,-1.326 z"
       id="path62"
       inkscape:connector-curvature="0" />
    <path
       d="m 318.972,117.845 c -1.814,1.216 -5.424,4.956 -5.534,9.265 -0.11,2.431 -0.563,2.424 1.029,3.971 1.15,1.658 2.31,1.509 4.631,0.293 1.333,-0.982 1.784,-1.634 2.233,-3.281 0.553,-2.762 -2.92,1.31 -3.362,-1.764 -0.773,-2.854 1.457,-4.022 3.556,-6.784 0.07,-1.892 0.029,-3.232 -2.553,-1.7 z"
       id="path64"
       inkscape:connector-curvature="0" />
    <path
       d="m 340.782,121.719 c -0.782,1.727 -1.719,10.748 -1.563,10.748 -0.624,2.688 2.813,3.838 4.376,0.383 2.343,-6.334 2.343,-9.021 2.5,-11.708 -0.73,-4.093 -3.49,-3.965 -5.313,0.577 z"
       id="path66"
       inkscape:connector-curvature="0" />
    <path
       d="m 478.282,191.687 c 0.469,-0.469 19.376,-13.906 19.376,-13.906 1.927,-0.677 1.51,6.927 0.625,6.875 0.364,1.51 -18.646,14.427 -20.001,13.906 -0.937,0.677 -1.875,-5.208 0,-6.875 z"
       id="path68"
       inkscape:connector-curvature="0" />
    <path
       d="m 495.525,191.578 c 3.333,1.657 4.66,11.407 4.292,14.058 0.118,5.156 -3.212,9.292 -4.483,8.611 -1.381,-0.608 0.121,-6.401 -0.542,-8.445 -0.737,-2.872 -3.567,-8.276 -3.089,-9.823 -0.939,-3.241 1.778,-4.972 3.822,-4.401 z"
       id="path70"
       inkscape:connector-curvature="0" />
    <path
       d="m 383.061,233.563 c 1.315,-1.922 5.377,-4.688 5.469,-4.688 1.874,-0.938 3.705,0.735 3.594,0.625 0.312,1.875 -1.186,3.62 -0.717,6.121 0.41,1.008 0.71,2.127 2.557,1.7 3.002,-2.362 5.783,-2.514 8.785,-2.665 2.301,0.139 2.392,4.034 0.937,4.063 -5.543,1.205 -8.027,2.689 -11.985,4.2 -1.875,1.093 -3.484,-0.294 -3.484,-0.45 0,-0.156 -1.097,-1.064 -0.331,-3.548 0.136,-1.992 -0.666,-3.084 -2.325,-2.858 -1.25,0.676 -2.351,1.124 -2.976,-0.313 -0.246,-1.061 -0.326,-1.577 0.476,-2.187 z"
       id="path72"
       inkscape:connector-curvature="0" />
    <path
       d="m 515.416,238.814 c 0.81,1.031 1.334,1.985 -0.065,3.679 -1.326,1.215 -2.26,1.884 -3.586,3.099 -0.626,1.068 -1.026,2.688 0.889,3.204 3.536,0.994 11.712,-4.309 11.712,-4.42 1.326,-0.994 0.884,-2.872 0.773,-2.872 -0.773,-0.884 -2.515,-0.359 -3.687,-0.502 -0.558,0 -2.388,-0.277 -1.517,-1.897 0.727,-1.008 0.987,-1.625 1.48,-2.867 0.552,-1.215 0.078,-2.026 -1.911,-2.689 -2.026,-0.368 -2.835,-0.184 -5.082,0 -1.215,0.258 -1.63,0.801 -1.851,2.274 0.087,2.234 1.446,2.107 2.845,2.991 z"
       id="path74"
       inkscape:connector-curvature="0" />
    <ellipse
       cx="381.25159"
       cy="181.37419"
       rx="3.437515"
       ry="3.125015"
       transform="matrix(0.865631,0.500682,-0.30041,0.519379,105.273,-102.9752)"
       id="ellipse76"
       style="fill:#006421" />
    <ellipse
       cx="381.25159"
       cy="181.37419"
       rx="3.437515"
       ry="3.125015"
       transform="matrix(0.316782,0.695571,-0.5691,0.139385,278.8449,-160.9473)"
       id="ellipse78"
       style="fill:#006421" />
  </g>
  <g
     transform="translate(539.18966,311.00022)"
     id="g80"
     style="fill:#000000">
    <g
       id="c">
      <path
         id="t"
         d="M 0,-60 0,0 30,0"
         transform="matrix(0.95105652,0.30901699,-0.30901699,0.95105652,-18.54102,-2.936609)"
         inkscape:connector-curvature="0" />
      <use
         xlink:href="#t"
         transform="scale(-1,1)"
         id="use84"
         x="0"
         y="0"
         width="100%"
         height="100%" />
    </g>
    <use
       xlink:href="#c"
       transform="matrix(0.30901699,0.95105652,-0.95105652,0.30901699,0,0)"
       id="use86"
       x="0"
       y="0"
       width="100%"
       height="100%" />
    <use
       xlink:href="#c"
       transform="matrix(-0.80901699,0.58778525,-0.58778525,-0.80901699,0,0)"
       id="use88"
       x="0"
       y="0"
       width="100%"
       height="100%" />
    <use
       xlink:href="#c"
       transform="matrix(-0.80901699,-0.58778525,0.58778525,-0.80901699,0,0)"
       id="use90"
       x="0"
       y="0"
       width="100%"
       height="100%" />
    <use
       xlink:href="#c"
       transform="matrix(0.30901699,-0.95105652,0.95105652,0.30901699,0,0)"
       id="use92"
       x="0"
       y="0"
       width="100%"
       height="100%" />
  </g>
  <path
     style="fill:none;stroke:#006d21;stroke-width:2;stroke-miterlimit:4;stroke-dasharray:none;stroke-opacity:1"
     d="m 126.97872,1.006078 c -0.41375,0.055802 -0.70619,0.5181863 -0.35547,1.5703126 -0.18323,0.54969 -0.18359,0.9151537 -0.18359,1.4648437 -0.73291,3.11488 0.73351,0.9162844 1.2832,-0.9160156 0.82452,-1.13373 0.0824,-2.0362007 -0.56054,-2.1191407 -0.0625,-0.008062 -0.12449,-0.007972 -0.1836,0 z M 97.713097,4.0353749 c -0.0962,0.001 -0.1858,0.016016 -0.26953,0.041016 -1.00491,0.30061 -1.00633,2.2308587 0.23047,2.9179687 0.73292,0.91615 3.114753,4.0211204 0.91601,3.8378904 -1.09937,-1.4658197 -2.54393,-1.8435204 -4.00977,-0.74414 -0.36644,0.18323 -0.94994,0.158566 -1.3164,0.341796 -13.19245,21.43773 -26.37396,44.183364 -39.56641,65.621094 -1.09937,2.01551 -2.56469,3.86962 -3.66406,6.06836 -0.73291,2.93165 -2.18687,5.46178 -3.83594,7.84375 -1.83228,2.93166 -3.86022,5.852768 -6.24219,8.417968 -2.198728,2.381972 -3.480579,5.509022 -5.496089,8.074222 -1.83228,2.74843 -4.421262,5.1406 -6.070312,8.07226 -1.2826,1.46583 -1.809197,3.28809 -3.091797,4.75391 -2.74843,2.74843 -4.604368,6.23045 -6.986328,9.16211 -1.64906,2.01551 -3.112295,4.04149 -4.578125,6.24023 -2.74843,3.48134 -4.9500617,7.31628 -7.3320307,11.16407 -1.282601,1.64907 -1.969707,3.68651 -3.435547,5.15234 -0.54969,1.83228 -1.476927,3.66577 -1.660157,5.49805 0,2.38197 -0.53647199,4.94811 -0.169922,7.33007 0.732921,2.19874 1.097169,4.38525 1.830079,6.58399 0.91615,1.64905 3.618642,1.47667 4.351562,3.49219 0.54968,1.46582 0.780025,2.94432 1.146485,4.41015 0.916139,4.39749 3.2540107,8.06236 5.2695307,11.91016 1.09937,1.83228 1.682742,3.98485 2.232422,6.18359 0.91615,5.1304 2.919673,9.89622 4.751953,14.66016 1.09938,4.03103 4.030253,7.14438 5.496094,10.99219 1.465819,2.38197 3.104856,4.78757 4.753906,6.98633 2.93165,3.84779 6.606184,6.93857 9.904296,10.41992 1.09937,1.2826 2.20958,2.7932 3.49219,3.89258 0.73291,1.64906 2.00365,2.55541 3.83594,2.92187 2.38197,0.73291 3.27673,3.44664 4.92578,5.0957 1.2826,1.28259 1.87914,3.12756 2.97851,4.41016 0.91614,2.38197 1.82995,4.6024 2.7461,6.98437 0.91614,2.93165 2.33617,5.48631 3.43554,8.41797 0.91614,2.01551 1.11036,4.18884 2.57618,5.83789 1.46584,1.64906 3.65441,2.6007 5.66992,3.15039 1.09937,0.18323 2.94445,0.89356 3.49414,-0.57226 0.36647,-2.38197 2.38146,-0.56095 3.66406,0.17187 4.39748,1.83229 8.61192,4.44188 12.82617,6.64063 1.2826,0.54969 2.95581,1.0537 3.32227,2.51953 0.36646,2.93165 1.29175,5.72619 1.6582,8.47461 0.18323,4.03104 1.10108,8.05296 1.83398,12.08398 -0.36645,2.19874 1.80933,2.91968 2.17579,4.75196 0.18323,2.01551 2.357053,3.46923 2.173823,5.66797 l 0.40235,-0.40235 0,0.17383 -0.40235,0.39844 c 0.18323,1.83228 1.64868,2.96702 2.74805,4.0664 2.01551,2.38196 3.69969,4.91223 5.89844,6.92774 1.64905,1.09938 2.71386,2.95567 4.17969,4.23828 2.01551,1.46582 4.43274,2.9442 4.98242,5.32617 0.18323,3.66457 2.02636,6.94993 3.49219,10.24805 1.09937,0.91615 2.55332,1.8225 3.83593,2.92187 1.2826,1.28261 2.93296,2.19642 4.58203,2.7461 1.64905,0.54969 2.38159,2.20018 2.74805,3.66601 0.54968,1.2826 2.1643,1.49964 3.26367,1.31641 2.01551,0.18323 4.43261,-0.0455 5.89844,1.60351 1.09938,2.01552 3.67516,2.04907 5.32422,3.14844 1.83228,2.01552 4.00742,4.17955 6.75586,5.0957 1.2826,1.28261 2.18884,3.13892 3.83789,4.23829 3.11489,1.46583 4.93297,4.5703 6.58203,7.50195 2.01552,0.73292 4.23997,1.29357 6.07227,2.57617 1.83228,1.64905 3.50316,4.00768 6.06836,4.92383 2.01552,1.28259 2.8856,3.66394 5.26757,4.58008 3.62852,1.66307 5.91056,5.09247 8.75586,7.78906 l 885.19534,0 -2.3144,-51.24805 0.1132,0 -0.2285,-3.3789 -0.6289,-13.80078 -0.3437,0 -0.3457,-4.17774 -3.1485,-128.49023 -1.6601,-72.88868 -19.8125,-78.789059 0,-0.171874 c -2.7484,0.18323 -5.8283,0.138193 -7.8438,-2.060547 -4.0311,-1.83228 -8.2568,-3.803826 -12.6543,-4.353516 -2.7484,-0.91614 -6.034,-0.743882 -8.416,-2.576172 -3.2981,-2.38197 -7.7433,-2.222761 -11.2246,-4.238281 -1.2368,-0.68711 -2.4781,-0.911716 -3.7793,-0.916016 -2.1687,-0.008 -4.4074,0.631774 -6.46874,1.089844 -2.7485,0.36646 -5.3126,2.209846 -8.2442,1.660156 -2.9317,0 -5.8414,-0.355185 -8.5898,-0.171875 -2.5652,0.73291 -4.9709,2.015013 -6.9864,3.664063 -2.9317,2.19875 -6.7687,0.929323 -10.25,0.746094 -2.1987,-0.549681 -4.236,0.330317 -6.0683,1.429687 -2.9317,-0.36645 -6.4119,0.0016 -8.2442,2.75 -2.1987,2.56521 -2.7475,6.778445 -6.4121,7.328125 -3.8477,1.2826 -7.83576,0.755371 -11.68356,1.488281 -1.64906,0.91614 -1.12157,3.469488 -3.32031,3.835938 -2.56519,2.38197 -4.23582,6.402583 -7.90039,7.501953 -1.64906,0.91614 -3.65246,1.305051 -5.66797,1.488281 -2.5652,0.54969 -5.32579,-0.73291 -8.07422,0 -2.38196,0 -4.94811,-0.538449 -7.33008,0.744141 -2.74842,0.91615 -5.49767,0.173603 -8.24609,1.089844 -3.29812,0.73291 -6.5609,0.891611 -9.67578,-0.574219 -2.19874,-0.73292 -4.21533,-1.441167 -6.41407,-0.341797 -2.5652,0.36646 -4.98007,1.807492 -7.72851,1.257812 -3.11488,0.18323 -6.04528,-1.79809 -9.16016,-1.43164 -4.58072,0 -8.03964,3.459951 -12.2539,4.925781 -2.01551,0.54968 -4.22668,0.559002 -6.24219,-0.173828 -2.38197,-1.09937 -5.09546,-1.99035 -6.92774,-4.005859 -2.01551,-1.282601 -4.07737,-3.139036 -6.64257,-3.322266 -2.74843,-0.54968 -4.91418,-2.186878 -6.92969,-3.835938 -3.66458,-1.46584 -7.3635,-3.514897 -11.39453,-3.148437 -3.66457,0 -6.75535,2.049326 -10.41992,1.316406 -5.1304,-0.91614 -9.90562,2.003658 -14.48633,3.835938 -3.84779,2.01551 -7.29552,4.787702 -11.50977,6.070312 -3.48134,1.83228 -5.88657,4.923704 -9.73437,5.839844 -2.74842,1.09938 -5.86217,0.938467 -8.24414,2.404297 -2.01551,2.38197 -2.37182,6.000239 -5.66993,7.099609 -2.19874,0.91614 -4.77453,2.200061 -5.32421,4.582031 -1.2826,2.74842 -4.93689,2.770374 -6.58594,5.152344 -2.19874,2.19874 -5.31249,2.00586 -8.24414,2.00586 -1.83228,1.099369 -2.78368,3.675283 -4.98242,4.408203 -1.83228,1.2826 -4.73853,0.0107 -5.83789,2.57617 -1.46583,1.2826 -3.87365,-2.4e-4 -5.15626,1.83203 -0.7329,2.19876 -2.92906,1.10107 -4.57812,1.83399 -2.19874,1.2826 -2.01684,4.59131 -4.58203,5.32422 -2.01552,0.36646 -4.17003,1.24828 -6.18555,2.34765 -3.11488,1.83229 -5.88475,4.22473 -8.8164,6.24024 -2.74843,2.19874 -6.02452,4.2362 -9.50586,5.15234 -2.93166,1.09937 -5.49571,3.0935 -8.24414,4.92578 -2.93166,2.74843 -6.96312,3.87 -10.99414,3.32032 -1.83229,0 -4.07556,-0.77833 -5.72461,0.6875 -2.74843,1.83229 -6.59691,0.36607 -9.16211,2.74804 -3.66458,2.01552 -7.51268,4.60462 -11.91016,5.1543 -2.74843,0.36646 -5.66759,0.16995 -8.41602,-0.7461 -3.84779,-1.09936 -8.58005,0.72194 -11.51171,-2.57617 -2.01551,-2.38196 -4.97827,-3.83555 -6.81055,-6.58398 -2.56521,-2.19873 -3.49364,-6.19678 -7.1582,-6.92969 -1.83229,-0.54969 -3.83764,1.06544 -5.66993,-0.40039 -3.29811,-0.91614 -6.04527,2.0398 -9.16015,2.40625 -4.39749,1.2826 -9.16148,1.9795 -13.74219,0.51367 -2.19874,-0.18322 -4.21337,-1.23511 -6.41211,-1.60156 l 0,-0.23047 -0.34375,0 c -2.74842,-0.91615 -5.48643,-1.64685 -7.50195,-1.83008 -3.11488,0.18323 -4.24926,-3.10498 -6.81446,-3.83789 -4.21426,-0.18323 -7.68467,-2.73839 -11.16601,-4.7539 -1.64906,-1.2826 -4.37257,0.35681 -2.17383,2.00586 2.19875,1.64907 -0.76853,2.22119 -2.23437,1.48828 -2.5652,0 -1.08777,-2.55334 -2.00391,-3.83594 -2.01551,-1.2826 -3.66381,-3.12756 -5.49609,-4.41016 -1.46583,-1.83229 -3.66578,-0.9027 -5.49805,-1.08593 -2.56521,-0.54968 -5.12965,0.69652 -5.4961,3.26171 -0.18322,2.38198 -2.73644,3.50538 -4.75195,4.23829 -3.11489,0.73291 -5.49779,3.27465 -7.33008,5.83984 -2.01552,1.09938 -4.77635,0.9044 -6.24218,2.91992 -2.01551,2.19874 -4.94615,1.12182 -7.32813,1.48828 -2.38197,0 -3.30882,2.01697 -4.4082,3.66602 -1.83227,1.28261 -1.43127,4.93518 -4.17969,4.75195 -2.19874,-0.36645 -3.3335,1.50134 -4.06641,3.15039 -1.09937,2.19874 -3.83568,1.08581 -5.66796,2.00196 -1.64906,2.19873 -3.49377,4.38549 -6.24219,4.75195 -3.48134,0.36645 -7.11241,0.74609 -10.59375,0.74609 -2.93167,0.36646 -5.32188,-1.6488 -8.07031,-1.83203 -3.48134,-0.54968 -4.23986,4.22485 -6.98829,5.32422 -3.48135,0.91615 -5.49584,3.82419 -7.32812,6.75586 -2.01551,3.48133 -6.57226,2.37193 -9.50391,4.75391 -2.19874,2.56519 -4.58361,4.7517 -7.33203,6.58398 -3.8478,1.46583 -8.07177,1.28223 -11.73633,2.74805 -2.93166,0.73292 -4.92357,3.12743 -6.75586,5.32617 -1.64905,2.93166 -4.99326,4.60474 -8.47461,4.23828 -2.5652,0.54968 2.61037,0.91381 1.14454,2.74609 -1.09937,1.64906 -3.48059,2.53284 -5.4961,2.34961 -1.2826,0.54968 -2.94431,0.56091 -4.41015,0.74414 -2.74842,0.36646 -5.49573,0.7555 -8.24414,0.57227 -1.64907,0 -3.28808,-0.72143 -4.75391,-1.08789 -3.29811,-0.54969 -6.09056,-2.41553 -9.38867,-3.14844 -4.03102,-0.91614 -7.87913,-1.80932 -11.91016,-2.17578 -5.49685,0.54969 -10.78757,1.65991 -15.91797,3.49219 -4.21425,2.5652 -8.79697,4.38549 -13.74414,4.75195 -1.2826,0 -3.68665,0.33252 -4.23633,-0.40039 -5.49686,-1.09937 -10.76485,-1.27099 -16.26171,-2.00391 -1.46583,0.18323 -3.34277,-0.0112 -4.8086,1.08789 -2.93165,2.38197 -6.96323,1.13345 -10.07812,-0.51562 -2.74842,-1.46582 -6.18518,-1.12365 -8.9336,-2.40625 -4.39749,-1.28259 -7.70543,-4.39648 -10.82031,-7.32813 l -0.17383,0.17188 -0.16992,0.34375 -0.0566,0 0.23047,-0.51563 0.16992,-0.16992 -0.16992,-0.17383 c -2.93166,-2.56519 -6.09446,-5.11803 -9.39258,-7.5 -2.38197,-1.83228 -4.90087,-3.48058 -7.09961,-5.49609 -3.29811,-2.19874 -7.32969,-3.31054 -10.07812,-6.24219 -2.93165,-2.01551 -4.81016,-4.94811 -7.5586,-7.33008 -3.84779,-3.84781 -9.32201,-5.50706 -14.08594,-8.07226 -3.8478,-3.48134 -7.14635,-7.52611 -10.99414,-10.82422 -2.93167,-2.93167 -6.61753,-5.13866 -9.73242,-8.07031 -2.19874,-2.01551 -4.00755,-4.20397 -5.83984,-6.58594 -2.19873,-3.11488 -4.77625,-6.05857 -7.1582,-8.99023 -3.29812,-3.66458 -6.3795,-7.28246 -10.59376,-9.84766 -4.39749,-3.664572 -6.7894,-9.161479 -9.90429,-13.742189 -2.19874,-3.11489 -3.29931,-6.79137 -5.49805,-9.90625 -1.83228,-2.5652 -1.46337,-5.864124 -3.66211,-8.246094 -2.5652,-2.38198 -2.38341,-6.047219 -3.66601,-9.162109 -2.19902,-1.46619 -5.14269,-1.476678 -7.15821,-3.492188 -3.48134,-2.74842 -5.15222,-7.352156 -6.06836,-11.566406 -0.18323,-2.74842 3.1354,-5.09533 1.48633,-7.84375 -0.73291,-2.19874 -2.21936,-4.61375 -0.57031,-6.8125 1.09937,-1.46583 -0.91588,-4.731579 -1.83203,-2.349609 0.54968,2.01552 -1.44469,3.265873 -3.09375,1.433593 -2.74843,-0.54969 -3.67504,-3.837766 -6.24024,-4.753906 -2.74843,-0.36646 -5.49767,1.110715 -8.24609,-0.171875 -2.5652,-0.73292 -3.26172,-3.459827 -3.26172,-5.841797 0.18323,-1.46582 -2.01709,-4.247932 -2.75,-2.232422 -1.2826,1.2826 -2.40612,-1.829953 -3.32226,-2.746093 -1.64905,-2.74843 -1.11009,-6.9427373 -4.408213,-8.5917972 -0.41226,-0.27485 -0.7582,-0.3861726 -1.04687,-0.3828126 z m 31.621093,7.8476561 c -1.21935,0.115641 -5.07024,3.254926 -3.81055,3.884766 l 0.54883,1.650391 c -1.09937,0.91615 3.849,-1.466538 2.56641,-3.298828 1.25969,-1.71778 1.24955,-2.288888 0.69531,-2.236329 z m 17.05469,0.267579 c -0.6642,0.0458 -1.35187,0.594156 -0.52734,1.785156 0.18322,-0.18324 0.54955,-0.182368 0.91601,-0.548828 0.91614,-0.82453 0.27553,-1.282138 -0.38867,-1.236328 z m -32.26953,1.40625 c -0.42586,0.0926 -0.18521,0.974272 -0.50586,1.294921 0.91614,0.732911 2.01502,-1.098019 0.73242,-1.28125 -0.0916,-0.0229 -0.16572,-0.02697 -0.22656,-0.01367 z m -1.56446,0.59375 c -0.12548,0.002 -0.31695,0.09551 -0.59179,0.335937 0.44661,1.33986 1.13552,-0.345237 0.59179,-0.335937 z m 37.15625,4.199218 c -1.48802,-0.005 -1.46619,2.47961 -0.18359,3.28125 l 0.18164,0 0.36719,0 c 2.38197,0.73291 2.01625,-2.748774 0.36719,-3.115234 -0.27484,-0.11452 -0.51986,-0.165296 -0.73243,-0.166016 z M 768.1545,53.172094 c -0.47238,0.0773 -1.74344,1.210787 -1.88086,1.623047 0.54969,0.36646 1.46595,-0.916763 2.01563,-1.283203 0.0917,-0.27485 0.0226,-0.365614 -0.13477,-0.339844 z"
     id="rect4232"
     inkscape:connector-curvature="0" />
  <path
     d="m 190.0256,401.00022 c 1.20177,1.30274 2.41922,2.58544 3.84179,3.60156 2.38197,1.09938 4.23802,3.26343 6.07032,5.09571 3.84779,2.93165 7.50143,5.8867 11.16601,8.81835 2.19874,1.2826 2.7478,4.19078 4.58008,5.83985 2.19875,0.91614 4.74229,0.95177 6.75781,2.23437 1.64905,1.64907 3.29539,3.43543 5.49414,4.35157 1.09936,1.64905 2.74975,2.58545 4.58203,3.31836 4.03103,1.2826 8.08311,2.9215 11.56446,5.66992 5.49684,2.01552 11.32772,3.3087 17.00781,5.32422 4.21425,1.09937 8.26817,2.72716 12.48242,4.00976 7.87883,2.19874 15.59773,5.16527 23.47657,7.73047 2.93164,1.09937 5.99997,1.82995 8.93164,2.74609 9.5824,3.79681 19.54848,6.7198 29.3164,9.96485 l 0,0.45898 c 3.48134,1.2826 7.1671,2.37951 10.64844,3.66211 11.90985,4.39749 23.81122,8.23618 35.9043,12.08399 24.73585,8.24528 49.47118,16.50045 74.20703,24.5625 20.15513,6.22978 40.14918,12.86116 60.12109,19.64062 19.05576,6.59622 38.08876,12.78 57.14453,19.00977 45.80712,15.02473 91.45424,30.79313 137.07813,46.55078 5.2127,1.62895 10.17034,3.25169 15.57422,4.7539 0.67451,0.18751 1.31258,0.38929 2.0039,0.57227 l 0.0566,-0.57227 0.17188,0 -0.0566,0.57227 153.91211,0 33.15234,-32.23828 -16.83398,-3.49219 89.61129,-93.27344 23.64654,1.66016 65.7344,-66.13477 -0.2949,-6.52148 -887.0528,0 z"
     id="rect8"
     style="fill:#df0000;fill-opacity:1"
     inkscape:connector-curvature="0" />
</svg>
